{"title":"Life As We Know It TS XViD - IMAGiNE","uid":6044158,"size":1491083939,"categoryP":"video","categoryS":"movies","magnet":"?xt=urn:btih:0e12c8a07b174ad516f2a36a93283329e43811d9&amp;dn=Life+As+We+Know+It+TS+XViD+-+IMAGiNE&amp;tr=udp%3A%2F%2Ftracker.openbittorrent.com%3A80&amp;tr=udp%3A%2F%2Fopen.demonii.com%3A1337&amp;tr=udp%3A%2F%2Ftracker.coppersurfer.tk%3A6969&amp;tr=udp%3A%2F%2Fexodus.desync.com%3A6969","seeders":1,"leechers":0,"uploader":"SAFCukO09","files":103,"time":1292482311,"description":"[center]*********** ****    ****      ***      ******** *********** ****    *** **********\n\n          *+*     +*+*+* *+*+*+   *+* *+*   *+*    *+*    *+*     *+*+*   *+* *+*        \n\n          +*+     +*+ +*+*+ +*+  +*+   +*+  +*+           +*+     *+*+*+  +*+ +*+        \n\n          +$+     +$+  +*+  +$+ +$++*++$++* *$*           +$+     +$+ +*+ +$+ +$++*++$  \n\n          +$+     +$+       +$+ +$+     +$+ +$+   +$+$    +$+     +$+  +$+$+$ +$+        \n\n          $+$     $+$       $+$ $+$     $+$ $+$    $+$    $+$     $+$   $+$+$ $+$        \n\n      $$$$$$$$$$$ $$$       $$$ $$$     $$$  $$$$$$$$ $$$$$$$$$$$ $$$    $$$$ $$$$$$$$$$    \n\n                                               \n\n\n\n\n\n\n\n                          Another Fine Release Brought to you from - IMAGiNE                  \n\n\n\n\nRipper ...........: IMAGiNE                                        IMDB Rating.......:5.8/10                            \n\nVideo Codec.......: XVID                                         Release Date......:10/08/10\n\nAudio Codec.......:MP3                                           Theatre Date......:10/10/10\n\nAudio Bitrate.....:128                                              Runtime.......:1h 45mn\n\nSubtitles.........:NIL                                                 Language..........:ENGLISH\n\nResolution...... 704 x 352                                      IMDb URL......... http://www.imdb.com/title/tt1055292/\n\n\n\n\n\nDETAILS:\n\nVideo\n\nID                               : 0\n\nFormat                           : MPEG-4 Visual\n\nFormat profile                   : Advanced Simple@L5\n\nFormat settings, BVOP            : Yes\n\nFormat settings, QPel            : No\n\nFormat settings, GMC             : No warppoints\n\nFormat settings, Matrix          : Default (H.263)\n\nMuxing mode                      : Packed bitstream\n\nCodec ID                         : XVID\n\nCodec ID/Hint                    : XviD\n\nDuration                         : 1h 45mn\n\nBit rate                         : 1 722 Kbps\n\nWidth                            : 704 pixels\n\nHeight                           : 352 pixels\n\nDisplay aspect ratio             : 2.000\n\nFrame rate                       : 25.013 fps\n\nColor space                      : YUV\n\nChroma subsampling               : 4:2:0\n\nBit depth                        : 8 bits\n\nScan type                        : Progressive\n\nBits/(Pixel*Frame)               : 0.278\n\nStream size                      : 1.27 GiB (93%)\n\nWriting library                  : XviD 1.1.2 (UTC 2006-11-01)\n\n\n\nAudio\n\nID                               : 1\n\nFormat                           : MPEG Audio\n\nFormat version                   : Version 1\n\nFormat profile                   : Layer 3\n\nMode                             : Joint stereo\n\nMode extension                   : MS Stereo\n\nCodec ID                         : 55\n\nCodec ID/Hint                    : MP3\n\nDuration                         : 1h 45mn\n\nBit rate mode                    : Constant\n\nBit rate                         : 128 Kbps\n\nChannel(s)                       : 2 channels\n\nSampling rate                    : 44.1 KHz\n\nStream size                      : 97.0 MiB (7%)\n\nAlignment                        : Split accross interleaves\n\nInterleave, duration             : 40 ms (1.00 video frame)\n\nInterleave, preload duration     : 500 ms\n\n\n\n\n\n\n\n\n\n\n\nSOURCES:\n\n\n\nVIDEO: Life.As.We.Know.It.2010.TRUEFRENCH.TS.MD.XviD-SERENiTY.. Thanks\n\nAUDIO: Own\n\n\n\nNOTES:\n\n\n\nIMAGiNE bringing you another release..........Life As We Know It\n\n\n\nWhat we did was use SERENiTY TS release and did our own encode from that. We just made a small script containing resize,white balance,rgb eq,sharpness,chroma,brightness,contrast ect.\n\nThen we cleaned up are audio removing noise and hiss ect.Then synced it to our encode\n[/center]\n\n[center][img]http://img132.imageshack.us/img132/3928/vlcsnap2010121602h41m33.png[/img][/center]\n[center][img]http://img408.imageshack.us/img408/8316/vlcsnap2010121602h42m15.png[/img][/center]\n[center][img]http://img220.imageshack.us/img220/2244/vlcsnap2010121602h37m25.png[/img][/center]","torrent":{"xt":"urn:btih:0e12c8a07b174ad516f2a36a93283329e43811d9","amp;dn":"Life+As+We+Know+It+TS+XViD+-+IMAGiNE","amp;tr":["udp%3A%2F%2Ftracker.openbittorrent.com%3A80","udp%3A%2F%2Fopen.demonii.com%3A1337","udp%3A%2F%2Ftracker.coppersurfer.tk%3A6969","udp%3A%2F%2Fexodus.desync.com%3A6969"],"infoHash":"0e12c8a07b174ad516f2a36a93283329e43811d9","infoHashBuffer":{"type":"Buffer","data":[14,18,200,160,123,23,74,213,22,242,163,106,147,40,51,41,228,56,17,217]},"announce":[],"urlList":[]}}